<?xml version="1.0" standalone="no"?>
<!DOCTYPE svg PUBLIC "-//W3C//DTD SVG 20010904//EN"
 "http://www.w3.org/TR/2001/REC-SVG-20010904/DTD/svg10.dtd">
<svg version="1.0" xmlns="http://www.w3.org/2000/svg"
 width="300.000000pt" height="300.000000pt" viewBox="0 0 300.000000 300.000000"
 preserveAspectRatio="xMidYMid meet">
<metadata>
Created by potrace 1.11, written by Peter Selinger 2001-2013
</metadata>
<g transform="translate(0.000000,300.000000) scale(0.100000,-0.100000)"
fill="#000000" stroke="none">
<path d="M0 1495 l0 -875 230 0 230 0 0 875 0 875 -230 0 -230 0 0 -875z"/>
<path d="M1459 2338 c0 -18 0 -106 1 -195 l1 -163 -270 0 -271 0 0 -145 0
-145 255 0 255 0 0 -190 0 -190 -255 0 -255 0 0 -150 0 -150 270 0 270 0 -3
-195 -2 -196 375 2 c390 1 452 6 570 47 284 99 512 353 573 637 21 95 16 325
-8 415 -41 152 -124 289 -243 401 -134 127 -256 191 -447 235 -16 4 -207 9
-422 11 l-393 4 -1 -33z m672 -363 c147 -24 271 -112 334 -235 33 -65 46 -122
51 -220 11 -257 -114 -436 -346 -496 -60 -15 -232 -25 -248 -15 -11 8 -11 964
0 972 11 7 154 3 209 -6z"/>
</g>
</svg>
